<svg width="1920" height="962" viewBox="0 0 1920 962" fill="none" xmlns="http://www.w3.org/2000/svg">
<rect x="-9" width="1930" height="962" fill="#F2F2F2"/>
<path opacity="0.7" d="M81.223 212.85C82.5943 211.229 83.28 209.297 83.28 207.053C83.28 204.809 82.5943 202.814 81.223 201.069C79.9763 199.199 78.1063 198.264 75.613 198.264H59.905V215.281H75.613C78.1063 215.281 79.9763 214.471 81.223 212.85ZM59.905 246.51V264.836H77.296C80.1633 264.836 82.2827 263.901 83.654 262.031C85.15 260.036 85.898 257.855 85.898 255.486V255.299C85.898 252.93 85.0877 250.873 83.467 249.128C81.971 247.383 79.914 246.51 77.296 246.51H59.905ZM82.158 297H18.204C16.8327 297 15.6483 296.501 14.651 295.504C13.6537 294.507 13.155 293.322 13.155 291.951V171.149C13.155 169.778 13.6537 168.593 14.651 167.596C15.6483 166.599 16.8327 166.1 18.204 166.1H80.288C97.9907 166.1 111.018 169.341 119.371 175.824C127.848 182.182 132.087 191.844 132.087 204.809V205.37C132.087 210.731 130.529 215.53 127.412 219.769C124.295 223.883 120.867 226.875 117.127 228.745C122.114 230.74 126.29 234.293 129.656 239.404C133.147 244.391 134.892 249.876 134.892 255.86C134.892 283.287 117.314 297 82.158 297ZM199.381 260.535H256.977C258.348 260.535 259.532 261.034 260.53 262.031C261.527 263.028 262.026 264.213 262.026 265.584V291.951C262.026 293.322 261.527 294.507 260.53 295.504C259.532 296.501 258.348 297 256.977 297H159.55C158.178 297 156.994 296.501 155.997 295.504C154.999 294.507 154.501 293.322 154.501 291.951V171.149C154.501 169.778 154.999 168.593 155.997 167.596C156.994 166.599 158.178 166.1 159.55 166.1H255.481C256.852 166.1 258.036 166.599 259.034 167.596C260.031 168.593 260.53 169.778 260.53 171.149V197.516C260.53 198.887 260.031 200.072 259.034 201.069C258.036 202.066 256.852 202.565 255.481 202.565H199.381V214.346H251.367C252.738 214.346 253.922 214.845 254.92 215.842C255.917 216.839 256.416 218.024 256.416 219.395V243.705C256.416 245.076 255.917 246.261 254.92 247.258C253.922 248.255 252.738 248.754 251.367 248.754H199.381V260.535ZM281.158 207.24C281.158 194.524 286.394 184.177 296.866 176.198C307.463 168.219 321.301 164.23 338.38 164.23C355.584 164.23 369.609 168.406 380.455 176.759C391.426 185.112 396.911 193.838 396.911 202.939C396.911 204.061 396.475 205.058 395.602 205.931C394.854 206.679 393.981 207.053 392.984 207.053H355.584C352.717 207.053 350.099 205.993 347.73 203.874C345.361 201.755 342.182 200.695 338.193 200.695C332.209 200.695 329.217 202.44 329.217 205.931C329.217 207.801 330.651 209.359 333.518 210.606C336.51 211.853 341.995 212.975 349.974 213.972C368.549 216.341 381.764 220.704 389.618 227.062C397.597 233.295 401.586 242.832 401.586 255.673C401.586 268.389 395.727 278.799 384.008 286.902C372.414 294.881 357.205 298.87 338.38 298.87C319.555 298.87 304.782 295.005 294.061 287.276C283.34 279.547 277.979 270.134 277.979 259.039C277.979 257.917 278.353 256.982 279.101 256.234C279.974 255.361 280.971 254.925 282.093 254.925H317.623C320.241 254.925 323.108 256.172 326.225 258.665C329.466 261.158 333.892 262.405 339.502 262.405C348.852 262.405 353.527 260.66 353.527 257.169C353.527 254.925 351.844 253.242 348.478 252.12C345.112 250.873 338.754 249.627 329.404 248.38C297.24 244.141 281.158 230.428 281.158 207.24ZM417.8 166.1H527.382C528.753 166.1 529.937 166.599 530.935 167.596C531.932 168.593 532.431 169.778 532.431 171.149V201.256C532.431 202.627 531.932 203.812 530.935 204.809C529.937 205.806 528.753 206.305 527.382 206.305H496.34V291.951C496.34 293.322 495.841 294.507 494.844 295.504C493.846 296.501 492.662 297 491.291 297H453.891C452.519 297 451.335 296.501 450.338 295.504C449.34 294.507 448.842 293.322 448.842 291.951V206.305H417.8C416.428 206.305 415.244 205.806 414.247 204.809C413.249 203.812 412.751 202.627 412.751 201.256V171.149C412.751 169.778 413.249 168.593 414.247 167.596C415.244 166.599 416.428 166.1 417.8 166.1ZM26.432 351.068C37.9013 341.843 53.0483 337.23 71.873 337.23C90.6977 337.23 105.782 341.905 117.127 351.255C128.596 360.48 134.331 373.508 134.331 390.338V419.51C134.331 434.221 129.905 446.126 121.054 455.227L135.64 476.358C136.014 477.106 136.201 477.854 136.201 478.602C136.201 479.475 135.827 480.285 135.079 481.033C134.456 481.781 133.583 482.155 132.461 482.155H95.809C92.6923 482.155 90.0743 480.721 87.955 477.854L82.719 471.309C79.1037 471.683 75.4883 471.87 71.873 471.87C52.799 471.87 37.5897 467.444 26.245 458.593C15.025 449.617 9.415 436.589 9.415 419.51V390.338C9.415 373.383 15.0873 360.293 26.432 351.068ZM61.775 431.665C64.2683 434.158 67.6343 435.405 71.873 435.405C76.1117 435.405 79.4777 434.158 81.971 431.665C84.4643 429.172 85.711 425.369 85.711 420.258V388.842C85.711 383.855 84.4643 380.115 81.971 377.622C79.4777 375.004 76.1117 373.695 71.873 373.695C67.6343 373.695 64.2683 375.004 61.775 377.622C59.2817 380.115 58.035 383.855 58.035 388.842V420.258C58.035 425.369 59.2817 429.172 61.775 431.665ZM234.48 339.1H271.132C272.503 339.1 273.687 339.599 274.685 340.596C275.682 341.593 276.181 342.778 276.181 344.149V419.323C276.181 436.776 270.758 449.929 259.912 458.78C249.066 467.507 234.293 471.87 215.593 471.87C197.017 471.87 182.244 467.507 171.274 458.78C160.428 450.053 155.005 436.901 155.005 419.323V344.149C155.005 342.778 155.503 341.593 156.501 340.596C157.498 339.599 158.682 339.1 160.054 339.1H196.706C198.077 339.1 199.261 339.599 200.259 340.596C201.256 341.593 201.755 342.778 201.755 344.149V419.884C201.755 429.483 206.367 434.283 215.593 434.283C224.818 434.283 229.431 429.483 229.431 419.884V344.149C229.431 342.778 229.929 341.593 230.927 340.596C231.924 339.599 233.108 339.1 234.48 339.1ZM339.539 339.1H380.118C384.606 339.1 387.411 341.157 388.533 345.271L430.234 464.577C430.358 464.951 430.421 465.574 430.421 466.447C430.421 467.195 429.984 468.005 429.112 468.878C428.364 469.626 427.429 470 426.307 470H391.712C387.972 470 385.541 468.442 384.419 465.325L379.931 452.983H339.726L335.238 465.325C334.116 468.442 331.685 470 327.945 470H293.35C292.228 470 291.23 469.626 290.358 468.878C289.61 468.005 289.236 467.195 289.236 466.447C289.236 465.574 289.298 464.951 289.423 464.577L331.124 345.271C332.246 341.157 335.051 339.1 339.539 339.1ZM349.263 416.518H370.394L359.735 381.736L349.263 416.518ZM492.908 431.665H544.707C546.078 431.665 547.263 432.164 548.26 433.161C549.257 434.158 549.756 435.343 549.756 436.714V464.951C549.756 466.322 549.257 467.507 548.26 468.504C547.263 469.501 546.078 470 544.707 470H450.459C449.088 470 447.903 469.501 446.906 468.504C445.909 467.507 445.41 466.322 445.41 464.951V344.149C445.41 342.778 445.909 341.593 446.906 340.596C447.903 339.599 449.088 339.1 450.459 339.1H487.859C489.23 339.1 490.415 339.599 491.412 340.596C492.409 341.593 492.908 342.778 492.908 344.149V431.665ZM609.865 470H571.717C570.345 470 569.161 469.501 568.164 468.504C567.166 467.507 566.668 466.322 566.668 464.951V344.149C566.668 342.778 567.166 341.593 568.164 340.596C569.161 339.599 570.345 339.1 571.717 339.1H609.865C611.236 339.1 612.42 339.599 613.418 340.596C614.415 341.593 614.914 342.778 614.914 344.149V464.951C614.914 466.322 614.415 467.507 613.418 468.504C612.42 469.501 611.236 470 609.865 470ZM637.671 339.1H747.253C748.624 339.1 749.808 339.599 750.806 340.596C751.803 341.593 752.302 342.778 752.302 344.149V374.256C752.302 375.627 751.803 376.812 750.806 377.809C749.808 378.806 748.624 379.305 747.253 379.305H716.211V464.951C716.211 466.322 715.712 467.507 714.715 468.504C713.717 469.501 712.533 470 711.162 470H673.762C672.39 470 671.206 469.501 670.209 468.504C669.211 467.507 668.713 466.322 668.713 464.951V379.305H637.671C636.299 379.305 635.115 378.806 634.118 377.809C633.12 376.812 632.622 375.627 632.622 374.256V344.149C632.622 342.778 633.12 341.593 634.118 340.596C635.115 339.599 636.299 339.1 637.671 339.1ZM843.968 470H807.316C805.945 470 804.761 469.501 803.763 468.504C802.766 467.507 802.267 466.322 802.267 464.951V428.112L760.192 344.897C759.943 344.398 759.818 343.713 759.818 342.84C759.818 341.967 760.192 341.157 760.94 340.409C761.813 339.536 762.81 339.1 763.932 339.1H799.088C802.828 339.1 805.446 340.658 806.942 343.775L825.642 381.362L844.342 343.775C845.838 340.658 848.456 339.1 852.196 339.1H887.352C888.474 339.1 889.409 339.536 890.157 340.409C891.03 341.157 891.466 341.967 891.466 342.84C891.466 343.713 891.342 344.398 891.092 344.897L849.017 428.112V464.951C849.017 466.322 848.519 467.507 847.521 468.504C846.524 469.501 845.34 470 843.968 470Z" fill="url(#paint0_linear_90_308)"/>
<defs>
<linearGradient id="paint0_linear_90_308" x1="449.5" y1="152" x2="449.5" y2="498" gradientUnits="userSpaceOnUse">
<stop stop-color="white" stop-opacity="0.95"/>
<stop offset="1" stop-color="white" stop-opacity="0"/>
</linearGradient>
</defs>
</svg>
