<svg width="70" height="70" viewBox="0 0 70 70" fill="none" xmlns="http://www.w3.org/2000/svg">
<rect width="70" height="70" rx="10" fill="#343A41"/>
<path d="M44 27.74C43.91 27.725 43.805 27.725 43.715 27.74C41.645 27.665 39.995 25.97 39.995 23.87C39.995 21.725 41.72 20 43.865 20C46.01 20 47.735 21.74 47.735 23.87C47.72 25.97 46.07 27.665 44 27.74Z" stroke="white" stroke-width="3" stroke-linecap="round" stroke-linejoin="round"/>
<path d="M42.455 38.66C44.51 39.005 46.775 38.645 48.365 37.58C50.48 36.17 50.48 33.86 48.365 32.45C46.76 31.385 44.465 31.025 42.41 31.385" stroke="white" stroke-width="3" stroke-linecap="round" stroke-linejoin="round"/>
<path d="M25.955 27.74C26.045 27.725 26.15 27.725 26.24 27.74C28.31 27.665 29.96 25.97 29.96 23.87C29.96 21.725 28.235 20 26.09 20C23.945 20 22.22 21.74 22.22 23.87C22.235 25.97 23.885 27.665 25.955 27.74Z" stroke="white" stroke-width="3" stroke-linecap="round" stroke-linejoin="round"/>
<path d="M27.5 38.66C25.445 39.005 23.18 38.645 21.59 37.58C19.475 36.17 19.475 33.86 21.59 32.45C23.195 31.385 25.49 31.025 27.545 31.385" stroke="white" stroke-width="3" stroke-linecap="round" stroke-linejoin="round"/>
<path d="M35 38.945C34.91 38.93 34.805 38.93 34.715 38.945C32.645 38.87 30.995 37.175 30.995 35.075C30.995 32.93 32.72 31.205 34.865 31.205C37.01 31.205 38.735 32.945 38.735 35.075C38.72 37.175 37.07 38.885 35 38.945Z" stroke="white" stroke-width="3" stroke-linecap="round" stroke-linejoin="round"/>
<path d="M30.635 43.6699C28.52 45.0799 28.52 47.3899 30.635 48.7999C33.035 50.4049 36.965 50.4049 39.365 48.7999C41.48 47.3899 41.48 45.0799 39.365 43.6699C36.98 42.0799 33.035 42.0799 30.635 43.6699Z" stroke="white" stroke-width="3" stroke-linecap="round" stroke-linejoin="round"/>
</svg>
