<svg width="70" height="70" viewBox="0 0 70 70" fill="none" xmlns="http://www.w3.org/2000/svg">
<rect width="70" height="70" rx="10" fill="#343A41"/>
<path d="M29.5699 35.0001L33.1849 38.6302L40.4299 31.3701" stroke="white" stroke-width="3" stroke-linecap="round" stroke-linejoin="round"/>
<path d="M33.1249 20.675C34.1599 19.79 35.8549 19.79 36.9049 20.675L39.2749 22.715C39.7249 23.105 40.5649 23.42 41.1649 23.42H43.7149C45.3049 23.42 46.6099 24.725 46.6099 26.315V28.865C46.6099 29.45 46.9249 30.305 47.3149 30.755L49.3549 33.125C50.2399 34.16 50.2399 35.855 49.3549 36.905L47.3149 39.275C46.9249 39.725 46.6099 40.565 46.6099 41.165V43.715C46.6099 45.305 45.3049 46.61 43.7149 46.61H41.1649C40.5799 46.61 39.7249 46.925 39.2749 47.315L36.9049 49.355C35.8699 50.24 34.1749 50.24 33.1249 49.355L30.7549 47.315C30.3049 46.925 29.4649 46.61 28.8649 46.61H26.2699C24.6799 46.61 23.3749 45.305 23.3749 43.715V41.15C23.3749 40.565 23.0599 39.725 22.6849 39.275L20.6599 36.89C19.7899 35.855 19.7899 34.175 20.6599 33.14L22.6849 30.755C23.0599 30.305 23.3749 29.465 23.3749 28.88V26.3C23.3749 24.71 24.6799 23.405 26.2699 23.405H28.8649C29.4499 23.405 30.3049 23.09 30.7549 22.7L33.1249 20.675Z" stroke="white" stroke-width="3" stroke-linecap="round" stroke-linejoin="round"/>
</svg>
