<svg width="70" height="70" viewBox="0 0 70 70" fill="none" xmlns="http://www.w3.org/2000/svg">
<rect width="70" height="70" rx="10" fill="#343A41"/>
<path d="M36.38 20.4149L46.145 25.7187C47.285 26.3382 47.285 28.1062 46.145 28.7257L36.38 34.0295C35.51 34.4979 34.49 34.4979 33.62 34.0295L23.855 28.7257C22.715 28.1062 22.715 26.3382 23.855 25.7187L33.62 20.4149C34.49 19.9465 35.51 19.9465 36.38 20.4149Z" stroke="white" stroke-width="3" stroke-linecap="round" stroke-linejoin="round"/>
<path d="M22.415 32.3069L31.49 36.8854C32.615 37.4596 33.335 38.6231 33.335 39.8924V48.5356C33.335 49.7898 32.03 50.5906 30.92 50.0316L21.845 45.4531C20.72 44.8789 20 43.7154 20 42.4461V33.8029C20 32.5487 21.305 31.7478 22.415 32.3069Z" stroke="white" stroke-width="3" stroke-linecap="round" stroke-linejoin="round"/>
<path d="M47.585 32.3069L38.51 36.8854C37.385 37.4596 36.665 38.6231 36.665 39.8924V48.5356C36.665 49.7898 37.97 50.5906 39.08 50.0316L48.155 45.4531C49.28 44.8789 50 43.7154 50 42.4461V33.8029C50 32.5487 48.695 31.7478 47.585 32.3069Z" stroke="white" stroke-width="3" stroke-linecap="round" stroke-linejoin="round"/>
</svg>
